<svg width="160" height="34" viewBox="0 0 160 34" fill="none" xmlns="http://www.w3.org/2000/svg">
<path d="M49.0441 9.71313V5.94242H44.7133V9.71313H43.8875V1.69189H44.7133V5.23251H49.0441V1.69189H49.8699V9.71313H49.0441Z" fill="white"/>
<path d="M54.9121 9.85018C53.2622 9.85018 52.3115 8.62479 52.3115 6.82506C52.3115 5.02532 53.2622 3.79993 54.9121 3.79993C56.5852 3.79993 57.5252 5.02532 57.5252 6.82506C57.5252 8.62479 56.5852 9.85018 54.9121 9.85018ZM54.9121 9.15098C56.1393 9.15098 56.6994 8.22346 56.6994 6.82506C56.6994 5.42665 56.1375 4.49913 54.9121 4.49913C53.7206 4.49913 53.1356 5.42665 53.1356 6.82506C53.1356 8.22346 53.7206 9.15098 54.9121 9.15098Z" fill="white"/>
<path d="M62.8992 4.76316C62.4408 4.61333 62.0394 4.49918 61.433 4.49918C60.7106 4.49918 60.2076 4.75068 60.2076 5.41599C60.2076 6.08131 60.7802 6.26324 61.4687 6.48085C62.6834 6.84829 63.3933 7.22643 63.3933 8.21103C63.3933 9.33475 62.4764 9.85023 61.2742 9.85023C60.5412 9.85023 59.7153 9.66651 59.3604 9.50598L59.4977 8.81926C59.99 9.00298 60.575 9.15103 61.2618 9.15103C62.0751 9.15103 62.5906 8.82996 62.5906 8.22351C62.5906 7.62776 62.0626 7.41015 61.0673 7.11228C60.1398 6.83759 59.3942 6.43626 59.3942 5.42848C59.3942 4.37432 60.1273 3.80176 61.3884 3.80176C62.018 3.80176 62.6263 3.9284 63.0151 4.08893L62.8992 4.76316Z" fill="white"/>
<path d="M67.6206 9.83948C67.0355 9.83948 66.6128 9.70214 66.3024 9.55231V11.8336H65.4998V4.3386C66.2221 3.96046 67.023 3.79993 67.6651 3.79993C69.4649 3.79993 70.3585 4.99143 70.3585 6.68771C70.3585 8.52134 69.4988 9.83948 67.6206 9.83948ZM67.5403 9.15098C68.8584 9.15098 69.5237 8.26806 69.5237 6.69841C69.5237 5.48372 68.9619 4.49735 67.633 4.49735C67.1051 4.49735 66.6485 4.63469 66.3042 4.82911V8.82992C66.611 8.99045 66.9891 9.15098 67.5403 9.15098Z" fill="white"/>
<path d="M72.6062 2.18373C72.6062 1.88586 72.8006 1.65576 73.1449 1.65576C73.4891 1.65576 73.6835 1.88586 73.6835 2.18373C73.6835 2.49231 73.4891 2.73311 73.1449 2.73311C72.8006 2.73489 72.6062 2.49409 72.6062 2.18373ZM73.5444 9.71267H72.7418V3.93709H73.5444V9.71267Z" fill="white"/>
<path d="M78.0843 9.85014C77.0765 9.85014 76.4005 9.35784 76.4005 8.01651V4.61324H75.53V3.93722H76.4005V2.5727L77.2031 2.51562V3.93722H78.7621V4.61324H77.2031V8.01651C77.2031 8.86376 77.5706 9.15093 78.1877 9.15093C78.416 9.15093 78.6925 9.11704 78.8869 9.05996L78.944 9.73598C78.68 9.80554 78.416 9.85014 78.0843 9.85014Z" fill="white"/>
<path d="M82.1744 9.85001C80.7528 9.85001 80.009 9.15081 80.009 8.15373C80.009 6.91585 81.0061 6.41107 82.2315 6.40037C82.7006 6.40037 83.2054 6.46993 83.6174 6.5609V5.89559C83.6174 5.01266 83.159 4.49718 82.1156 4.49718C81.5537 4.49718 80.9918 4.61133 80.5691 4.79505L80.3854 4.12974C80.8331 3.93532 81.5198 3.79797 82.1726 3.79797C83.662 3.79797 84.4076 4.55426 84.4076 5.92948V9.31134C83.9046 9.60922 83.1947 9.85001 82.1744 9.85001ZM83.6192 8.88861V7.14595C83.2411 7.06568 82.829 6.98542 82.3136 6.98542C81.4538 6.98542 80.8117 7.27259 80.8117 8.13054C80.8117 8.85294 81.3504 9.20789 82.244 9.20789C82.9307 9.20789 83.3659 9.04914 83.6192 8.88861Z" fill="white"/>
<path d="M87.8461 8.07358C87.8461 8.79597 88.0298 9.16163 88.6131 9.16163C88.7504 9.16163 88.8646 9.13844 88.9449 9.12774L89.0144 9.78057C88.8646 9.81446 88.6595 9.84835 88.4989 9.84835C87.5144 9.84835 87.0435 9.24189 87.0435 8.08428V1.47395L87.8461 1.41687V8.07358Z" fill="white"/>
<path d="M54.6553 31.6648V23.7773H47.2209V31.6648H43.3967V12.9468H47.2209V20.5132H54.6553V12.9468H58.4796V31.6648H54.6553Z" fill="white"/>
<path d="M67.4068 31.9857C62.8869 31.9857 61.3904 29.6866 61.3904 26.2637V18.0017H65.0541V26.2637C65.0541 27.9475 65.8032 28.9374 67.487 28.9374C68.3699 28.9374 69.1441 28.7769 69.8129 28.4558V17.9999H73.5034V30.8085C72.4599 31.2366 69.9467 31.9857 67.4068 31.9857Z" fill="white"/>
<path d="M93.3974 31.6648V23.4295C93.3974 21.6387 92.675 20.729 90.9912 20.729C90.0815 20.729 89.1736 20.9965 88.5047 21.3711C88.7188 22.0935 88.8258 22.9479 88.8258 23.8843V31.6648H85.2423V23.4295C85.2423 21.6387 84.5467 20.729 82.8362 20.729C82.087 20.729 81.3646 20.8895 80.6708 21.2106V31.6665H77.0071V18.8579C78.7176 18.1087 80.9383 17.6807 83.0234 17.6807C84.5752 17.6807 85.8577 18.0552 86.7942 18.7776C87.9179 18.2158 89.5214 17.6807 91.1535 17.6807C94.9509 17.6807 97.0628 19.6588 97.0628 23.1619V31.6648H93.3974Z" fill="white"/>
<path d="M105.08 31.9858C101.416 31.9858 99.5715 30.1949 99.5715 27.787C99.5715 25.14 101.737 23.5882 104.946 23.5614C105.695 23.5614 106.656 23.6684 107.325 23.7755V23.1333C107.325 21.5031 106.389 20.7271 104.598 20.7271C103.421 20.7271 102.165 20.9144 101.068 21.3693L100.399 18.4815C101.55 17.9999 103.394 17.6788 105.024 17.6788C108.955 17.6788 110.907 19.764 110.907 23.3741V30.8085C109.813 31.3704 107.755 31.9858 105.08 31.9858ZM107.327 28.9642V26.1032C106.712 25.9694 106.07 25.8891 105.429 25.8891C104.198 25.8891 103.237 26.3707 103.237 27.6282C103.237 28.7519 104.04 29.3388 105.456 29.3388C106.257 29.3388 106.926 29.1782 107.327 28.9642Z" fill="white"/>
<path d="M114.279 31.6647V18.8561C115.963 18.1337 118.264 17.6788 120.322 17.6788C124.226 17.6788 126.472 19.6034 126.472 23.1601V31.6629H122.782V23.4276C122.782 21.5833 121.925 20.7271 120.295 20.7271C119.439 20.7271 118.638 20.8877 117.942 21.2087V31.6647H114.279Z" fill="white"/>
<path d="M129.572 14.1242C129.572 12.8934 130.348 12.0658 131.71 12.0658C133.046 12.0658 133.822 12.8952 133.822 14.1242C133.822 15.3549 133.046 16.1825 131.71 16.1825C130.348 16.1825 129.572 15.3531 129.572 14.1242ZM133.557 31.6649H129.866V18.0001H133.557V31.6649Z" fill="white"/>
<path d="M146.659 17.9999V20.4863C145.002 23.5614 143.263 25.9944 140.723 28.7216H147.061V31.6629H136.178V29.1764C138.745 26.5562 141.312 23.4276 142.676 20.9412H136.473V17.9999H146.659Z" fill="white"/>
<path d="M154.173 31.9858C150.509 31.9858 148.665 30.1949 148.665 27.787C148.665 25.14 150.83 23.5882 154.039 23.5614C154.788 23.5614 155.749 23.6684 156.418 23.7755V23.1333C156.418 21.5031 155.482 20.7271 153.691 20.7271C152.514 20.7271 151.258 20.9144 150.161 21.3693L149.492 18.4815C150.643 17.9999 152.487 17.6788 154.117 17.6788C158.049 17.6788 160 19.764 160 23.3741V30.8085C158.905 31.3704 156.846 31.9858 154.173 31.9858ZM156.418 28.9642V26.1032C155.803 25.9694 155.161 25.8891 154.52 25.8891C153.29 25.8891 152.328 26.3707 152.328 27.6282C152.328 28.7519 153.131 29.3388 154.547 29.3388C155.348 29.3388 156.017 29.1782 156.418 28.9642Z" fill="white"/>
<path d="M17.1658 26.8168C15.177 26.8168 12.7958 25.8465 10.8498 24.2252C9.34794 22.9748 5.86262 19.2041 7.74976 16.8211C9.16779 15.0285 11.4366 16.2128 12.5283 16.7818C14.7275 17.9288 16.4167 18.1392 18.0024 17.4596C18.9477 17.0547 19.7379 16.3859 20.5745 15.676C21.3218 15.0427 22.0924 14.3881 22.9878 13.9369C24.1222 13.3661 25.2994 13.3625 26.218 13.9244C27.1081 14.4702 27.6236 15.4958 27.6289 16.739C27.6396 18.9009 26.4071 21.332 24.2488 23.4082C22.1887 25.3917 19.6862 26.6599 17.5529 26.8008C17.4245 26.8133 17.296 26.8168 17.1658 26.8168ZM11.2458 23.7489C13.2025 25.3792 15.6015 26.3121 17.5101 26.1854C21.4984 25.9197 27.0278 21.1126 27.0064 16.7444C27.0011 15.7063 26.6051 14.8929 25.8916 14.4541C25.1603 14.0064 24.2025 14.0189 23.2642 14.4916C22.4348 14.909 21.691 15.5386 20.974 16.1486C20.1392 16.8568 19.2759 17.5881 18.245 18.0304C15.9476 19.0132 13.718 18.1018 12.2393 17.3312C10.7303 16.5446 9.20168 15.9845 8.23492 17.2046C6.66528 19.1916 9.96688 22.6823 11.2458 23.7489Z" fill="white"/>
<path d="M17.4241 28.8628C17.1209 28.8628 16.8213 28.845 16.5216 28.8111C16.1756 28.7718 15.8063 28.7237 15.4353 28.6434C12.7919 28.0708 10.1663 26.4566 8.23638 24.2163C7.55501 23.4243 5.30043 20.5936 4.93478 17.4008C4.77781 16.0292 5.17736 14.8252 6.06028 14.0083C7.61922 12.5653 9.52598 13.2074 11.1848 14.0243C12.4441 14.6468 13.7836 15.2658 15.1107 15.4085C15.7689 15.4798 16.4164 15.437 17.0371 15.2854C18.7405 14.8662 20.1639 13.7728 21.6711 12.617C21.9279 12.419 22.1848 12.2228 22.4434 12.0284C22.6503 11.8732 22.8555 11.7162 23.0552 11.5611C24.6338 10.3446 26.1267 9.19589 28.0799 9.82196C29.2696 10.2019 30.1793 11.2614 30.511 12.658C30.9694 14.5844 30.4985 16.9085 29.0698 19.7624C27.823 22.2596 25.9644 24.6212 23.9703 26.2408C21.8495 27.9674 19.6038 28.8628 17.4241 28.8628ZM8.23995 13.771C7.61566 13.771 7.01991 13.9637 6.48123 14.4613C5.53945 15.3318 5.45562 16.5019 5.55015 17.3277C5.82484 19.725 7.36059 22.2471 8.70549 23.8078C10.5498 25.95 13.0505 27.4894 15.5655 28.0334C15.9098 28.1083 16.263 28.1529 16.5929 28.1921C21.5106 28.7593 26.2213 24.0772 28.5151 19.4824C29.876 16.7623 30.3309 14.5773 29.9081 12.7989C29.6263 11.6163 28.8718 10.7227 27.8908 10.4088C26.248 9.88261 24.9441 10.885 23.4352 12.048C23.2318 12.205 23.0267 12.3637 22.8162 12.5207C22.5594 12.7133 22.3043 12.9095 22.0492 13.1039C20.5581 14.2491 19.0152 15.4317 17.1851 15.8829C16.4948 16.0542 15.7742 16.1005 15.0447 16.0203C13.616 15.8669 12.2193 15.223 10.9119 14.5755C10.0165 14.1385 9.10147 13.771 8.23995 13.771Z" fill="white"/>
<path d="M17.5065 31.014C16.8537 31.014 16.1937 30.9497 15.5249 30.8124C15.0076 30.7072 14.5831 30.6019 14.1871 30.4806C10.9069 29.4782 7.7926 27.1951 5.64504 24.2163C3.63305 21.4266 2.48435 18.1554 2.49149 15.239C2.49506 13.5214 3.16394 12.0873 4.36971 11.2008C6.20869 9.85054 8.17074 10.473 9.84919 11.2596C10.1078 11.3809 10.3665 11.5058 10.6251 11.6307C11.7399 12.1693 12.8921 12.7276 13.9998 12.9702C14.699 13.1236 15.3964 13.1718 16.0742 13.1093C18.0363 12.9292 20.0055 11.9196 21.9247 10.1038C22.4259 9.62936 22.9129 9.09069 23.3838 8.56985C25.0051 6.77546 26.68 4.91865 29.3573 5.21296C31.1874 5.41273 32.7356 6.71482 33.3974 8.60909C34.4926 11.7216 33.3171 15.2729 32.0239 18.3337C29.2503 24.9155 23.8208 31.014 17.5065 31.014ZM6.75806 11.0403C6.07313 11.0403 5.38997 11.224 4.73715 11.702C3.69191 12.469 3.11578 13.7265 3.11221 15.2408C3.10508 18.0269 4.21096 21.1662 6.14804 23.8525C8.2189 26.7224 11.2137 28.9217 14.3673 29.8867C14.7436 30.0008 15.1503 30.1025 15.6479 30.2042C23.4248 31.7881 29.2432 23.337 31.455 18.0965C32.7017 15.1445 33.838 11.7323 32.8141 8.81778C32.2326 7.15182 30.8824 6.00848 29.2913 5.83368C26.928 5.57148 25.4314 7.23209 23.8458 8.98902C23.3677 9.51877 22.8719 10.0681 22.351 10.5587L22.1388 10.3339L22.351 10.5587C20.3265 12.4708 18.2343 13.5374 16.1313 13.73C15.3893 13.7978 14.6277 13.7479 13.866 13.5802C12.687 13.3216 11.5009 12.7472 10.354 12.1925C10.0971 12.0677 9.84027 11.9446 9.58342 11.8233C8.69871 11.4077 7.7266 11.0403 6.75806 11.0403Z" fill="white"/>
<path d="M17.5653 33.2042C16.5593 33.2042 15.548 33.0758 14.5348 32.8154C14.0033 32.6798 13.4682 32.5121 12.9438 32.3213C5.0831 29.4496 -0.581878 21.0038 0.0477622 13.095C0.211861 11.0277 1.16792 9.3189 2.67156 8.40744C5.29714 6.81639 7.78003 8.09173 10.1809 9.32604C11.1155 9.80763 12.0002 10.2607 12.8814 10.5461C15.9975 11.5503 19.1867 10.6674 21.4145 8.18626C22.0317 7.49954 22.6042 6.71472 23.2089 5.88531C25.1157 3.27221 27.0884 0.56993 30.6665 0.625224C33.0941 0.662681 35.3005 2.21627 36.2851 4.58322C37.9029 8.46987 36.4563 12.9897 34.9741 16.921C33.2243 21.5621 30.4703 25.8875 27.422 28.7878C24.3522 31.7095 20.9918 33.2042 17.5653 33.2042ZM13.1561 31.7398C13.6626 31.9253 14.1781 32.0841 14.6882 32.2161C24.6608 34.7739 31.767 23.6686 34.3944 16.7016C35.8356 12.8827 37.2429 8.49841 35.7125 4.82045C34.8225 2.68181 32.8372 1.27805 30.6558 1.24416C30.6237 1.24416 30.5916 1.24416 30.5612 1.24416C27.3631 1.24416 25.5063 3.7877 23.7083 6.24918C23.1197 7.05541 22.5115 7.88839 21.8729 8.60008C19.4774 11.2685 16.0438 12.2174 12.6887 11.1347C11.7576 10.835 10.8105 10.3481 9.8937 9.87719C7.54102 8.66786 5.32033 7.5263 2.99084 8.93719C1.662 9.7452 0.814746 11.2774 0.664917 13.1449C0.0584642 20.7898 5.54508 28.9573 13.1561 31.7398Z" fill="white"/>
<path d="M15.2502 13.7532C14.8668 13.7532 14.4797 13.7211 14.0926 13.6551C12.2822 13.3501 10.6983 12.3583 9.63342 10.8618C8.56856 9.36533 8.15118 7.54419 8.45619 5.73375C8.7612 3.92331 9.75293 2.33939 11.2494 1.27453C12.746 0.209675 14.5671 -0.207707 16.3775 0.0973032C18.188 0.402313 19.7719 1.39404 20.8367 2.89055C21.9016 4.38706 22.319 6.20821 22.014 8.01865C21.709 9.82909 20.7172 11.413 19.2207 12.4779C18.0453 13.3144 16.6665 13.7532 15.2502 13.7532ZM15.2235 0.621706C13.9357 0.621706 12.6817 1.01947 11.6115 1.7811C10.2506 2.74964 9.34803 4.19086 9.06978 5.8372C8.79152 7.48354 9.17323 9.14058 10.1418 10.5015C11.1103 11.8625 12.5515 12.765 14.1979 13.0433C15.8442 13.3215 17.5013 12.9398 18.8622 11.9713C20.2232 11.0027 21.1257 9.56153 21.404 7.91519C21.6822 6.26885 21.3005 4.61181 20.332 3.25086C19.3634 1.88991 17.9222 0.987362 16.2759 0.709107C15.9245 0.650245 15.5731 0.621706 15.2235 0.621706Z" fill="white"/>
</svg>
