<svg width="110" height="24" viewBox="0 0 110 24" fill="none" xmlns="http://www.w3.org/2000/svg">
<rect y="0.1427" width="5.84854" height="23.6378" fill="white"/>
<rect x="50.178" y="0.202148" width="5.84854" height="23.6378" fill="white"/>
<rect x="94.7729" y="0.202148" width="5.84854" height="23.6378" fill="#FE016E"/>
<rect x="109.394" y="9.03442" width="5.84854" height="14.6213" transform="rotate(90 109.394 9.03442)" fill="#FE016E"/>
<rect x="91.8489" y="9.03442" width="5.84854" height="5.84854" transform="rotate(90 91.8489 9.03442)" fill="#FE016E"/>
<rect x="67.7236" y="8.97498" width="5.84854" height="14.865" fill="white"/>
<rect x="82.3447" y="0.202148" width="5.84854" height="23.6378" transform="rotate(90 82.3447 0.202148)" fill="white"/>
<path fill-rule="evenodd" clip-rule="evenodd" d="M33.1417 0.248335C27.3632 1.02232 22.9067 5.97173 22.9067 11.962C22.9067 17.9523 27.3632 22.9017 33.1417 23.6757V17.7195C30.6131 17.0255 28.7553 14.7105 28.7553 11.9616C28.7553 9.21264 30.6131 6.89763 33.1417 6.20359V0.248335ZM36.0659 17.7809C38.7179 17.1726 40.6961 14.7981 40.6961 11.9616C40.6961 9.12502 38.7179 6.75049 36.0659 6.14221V0.218262C41.9623 0.883791 46.5446 5.88778 46.5446 11.962C46.5446 18.0363 41.9623 23.0403 36.0659 23.7058V17.7809ZM34.8316 23.7805H34.6197C34.655 23.7808 34.6903 23.7809 34.7257 23.7809C34.761 23.7809 34.7964 23.7808 34.8316 23.7805Z" fill="white"/>
<path fill-rule="evenodd" clip-rule="evenodd" d="M7.40991 23.7805C7.41741 23.7805 7.42492 23.7805 7.43242 23.7805C7.43993 23.7805 7.44743 23.7805 7.45493 23.7805H7.40991ZM8.77274 23.7053C14.6691 23.0398 19.2513 18.0358 19.2513 11.9616C19.2513 5.88736 14.6691 0.883382 8.77274 0.217834V6.14224C11.4247 6.75055 13.4028 9.12506 13.4028 11.9616C13.4028 14.7981 11.4247 17.1726 8.77274 17.7809V23.7053Z" fill="white"/>
</svg>
