<svg width="126" height="33" viewBox="0 0 126 33" fill="none" xmlns="http://www.w3.org/2000/svg">
<path d="M37.1473 7.24407C36.043 7.34419 29.6252 7.74704 26.9627 7.97349C26.0525 8.04977 25.3482 8.99133 25.3015 9.92098C25.3015 9.92098 24.279 26.073 24.0497 28.6689C23.776 31.7534 22.2037 32.5423 20.7204 32.5423C19.1738 32.5423 17.6319 31.6795 17.3606 28.6403C17.1593 26.3757 16.4808 18.6596 15.9357 11.1486C15.8397 9.82563 15.7204 8.92936 13.3316 8.92936C11.9909 8.92936 4.97654 9.47522 4.82679 9.47999C3.065 9.53244 0 8.54081 0 4.64823C0 1.07982 2.84975 0.307497 5.28303 0.307497C7.30921 0.307497 35.3668 0.879586 37.1193 1.0393C40.1001 1.31581 40.8253 2.53626 40.8253 4.11189C40.8277 5.62316 40.1749 6.96518 37.1473 7.24407ZM121.187 12.9101C118.304 12.9101 109.416 12.9792 103.726 12.9935C100.965 13.0031 100.277 14.5097 100.277 15.761C100.277 16.848 101.016 18.2544 103.592 18.3927C107.516 18.6049 112.507 18.8408 114.811 18.9599C117.913 19.1221 117.955 20.7478 116.908 22.1398C114.801 24.9312 109.678 26.7619 104.362 26.7619C97.4109 26.7619 89.7671 22.7334 89.7671 16.3498C89.7671 10.362 96.3112 3.76387 115.757 6.54804C117.464 6.79117 119.147 6.47891 119.568 4.86752C120.014 3.15602 118.922 2.05476 116.714 1.46121C112.303 0.278893 108.285 0 104.446 0C91.3605 0 80.867 6.36688 80.867 16.6502C80.867 27.6295 91.323 33 104.355 33C118.911 33 126 24.9287 126 17.873C126 14.2807 124.206 12.9101 121.187 12.9101ZM77.8838 25.8227C79.3929 27.8369 79.3765 29.8702 78.2464 31.0215C76.6975 32.5995 74.3345 32.0561 73.202 30.9L69.7744 27.1456C69.2386 26.5569 68.4853 26.2231 67.6968 26.2231H46.1177C45.3292 26.2231 44.5759 26.5593 44.0377 27.148L40.6195 30.9023C39.4847 32.0561 37.2175 32.7283 35.7201 31.2027C34.5901 30.0513 34.3958 27.8369 35.9049 25.8227L52.4467 3.14887C52.4467 3.14887 54.1218 0.808075 56.8803 0.808075C59.6388 0.808075 61.3398 3.14887 61.3398 3.14887L77.8838 25.8227ZM63.029 19.0959L58.9112 14.121C57.8372 12.8934 55.9538 12.8934 54.8799 14.121L50.769 19.0959C50.4181 19.482 50.6872 20.1089 51.2019 20.1089H62.5962C63.1133 20.1089 63.3801 19.482 63.029 19.0959Z" fill="white"/>
</svg>
