<svg width="167" height="25" viewBox="0 0 167 25" fill="none" xmlns="http://www.w3.org/2000/svg">
<path d="M37.5886 3.54614V19.1047L25.0886 3.54614H21.7642V24.7341H25.1773V9.26423L37.7216 24.7341H41.1347V3.54614H37.5886Z" fill="white"/>
<path d="M49.4681 3.54614H45.0798V24.7341H49.4681V3.54614Z" fill="white"/>
<path d="M166.135 15.5585L157.491 0.664894L157.403 0.531915C157.403 0.531915 157.403 0.531915 157.403 0.487589C157.225 0.221631 156.915 0.0443262 156.56 0C156.516 0 156.516 0 156.472 0C156.427 0 156.427 0 156.383 0H145.567H145.523H145.479C145.434 0 145.39 0 145.346 0H145.301H145.257C145.257 0 145.257 0 145.213 0C144.991 0.0886525 144.77 0.221631 144.504 0.487589L130.674 15.4255C130.674 15.4255 130.629 15.4699 130.585 15.5142C130.585 15.5142 130.541 15.5585 130.541 15.6028C130.496 15.6915 130.452 15.7801 130.452 15.8688C130.452 16.1791 130.674 16.4007 130.984 16.4007C130.984 16.4007 130.984 16.4007 131.028 16.4007H137.589C137.677 16.4007 137.766 16.4894 137.766 16.578C137.766 16.6223 137.766 16.6667 137.722 16.711L131.073 23.8032L131.028 23.8475C130.984 23.8918 130.94 23.9805 130.94 24.0248C130.94 24.0691 130.895 24.1135 130.895 24.1578C130.895 24.2908 130.984 24.4238 131.073 24.5124C131.161 24.5567 131.25 24.6011 131.383 24.6011C131.427 24.6011 131.427 24.6011 131.472 24.6011H135.949C136.215 24.6011 136.481 24.5124 136.702 24.2908L143.706 16.7553C143.75 16.711 143.794 16.6667 143.794 16.6223C143.794 16.5337 143.706 16.4007 143.573 16.4007H139.761C139.672 16.4007 139.583 16.3121 139.583 16.2234C139.583 16.1791 139.583 16.1348 139.628 16.0904L146.986 8.15603C147.03 8.1117 147.03 8.1117 147.074 8.06738C147.163 7.97872 147.296 7.89007 147.429 7.89007C147.606 7.89007 147.784 7.97872 147.872 8.1117L152.039 15.3369L152.482 16.0904V16.1348C152.482 16.1791 152.482 16.1791 152.482 16.2234C152.482 16.3121 152.394 16.4007 152.305 16.4007H148.449C148.316 16.4007 148.183 16.5337 148.183 16.6667C148.183 16.711 148.183 16.7553 148.227 16.844L152.394 24.0691L152.438 24.1135C152.615 24.4238 152.926 24.6011 153.28 24.6454H153.502H162.012C162.101 24.6454 162.19 24.6454 162.278 24.6011C162.5 24.5124 162.677 24.2908 162.677 24.0248C162.677 23.9362 162.677 23.8475 162.633 23.8032L162.544 23.6702L158.466 16.711C158.466 16.711 158.466 16.6667 158.466 16.6223C158.466 16.5337 158.555 16.445 158.644 16.445H158.688H165.514H165.559C165.603 16.445 165.692 16.445 165.736 16.4007H165.78L165.824 16.3564L165.869 16.3121L165.913 16.2677C165.913 16.2677 165.913 16.2234 165.957 16.2234C165.957 16.1791 166.002 16.1791 166.002 16.1348C166.002 16.0904 166.002 16.0904 166.046 16.0461C166.268 16.0018 166.268 15.7801 166.135 15.5585ZM152.837 7.62411H142.376C142.287 7.62411 142.199 7.53546 142.199 7.44681C142.199 7.40248 142.199 7.35816 142.243 7.31383L148.404 0.664894C148.449 0.620567 148.493 0.576241 148.582 0.531915C148.67 0.487589 148.759 0.443262 148.892 0.443262H148.936C149.069 0.443262 149.202 0.531915 149.291 0.664894L153.059 7.2695C153.059 7.31383 153.103 7.35816 153.103 7.40248C153.103 7.53546 152.97 7.62411 152.837 7.62411Z" fill="white"/>
<path d="M106.294 3.54614H94.7251L90.78 24.7341H103.502L104.167 21.0993H97.2073L98.2268 15.4699H103.901L104.565 11.8352H98.8917L99.7783 7.13657H105.629L106.294 3.54614Z" fill="white"/>
<path d="M117.287 3.54614H109.885L105.895 24.7341H113.076C119.991 24.7341 126.019 20.0798 126.019 12.4557C126.019 7.18089 123.005 3.54614 117.287 3.54614ZM113.83 21.0993H112.323L114.938 7.09224H116.534C118.839 7.09224 120.168 9.70749 120.168 12.4557C120.168 18.1295 116.534 21.0993 113.83 21.0993Z" fill="white"/>
<path d="M62.8988 21.0992C60.5938 21.0992 59.264 18.484 59.264 15.7358C59.264 10.1063 62.8988 7.09213 65.5584 7.09213H72.7392L73.4041 3.50171H66.3119C59.397 3.50171 53.3687 8.15596 53.3687 15.7801C53.3687 21.0549 56.3828 24.6897 62.1009 24.6897H69.4148L70.0796 21.0992H62.8988Z" fill="white"/>
<path d="M85.7712 15.2925C87.7216 14.3173 90.2482 12.5886 90.2482 8.90951C90.2482 6.64887 88.7411 3.50171 84.2641 3.50171H75.7978L71.8528 24.6897H77.5709L79.078 16.6666H80.718L82.89 24.6897H89.1843L85.7712 15.2925ZM81.4272 13.1205H79.6985L80.851 7.13646H82.3581C83.5549 7.13646 84.5744 8.3776 84.5744 9.66306C84.5744 11.6134 82.9787 13.1205 81.4272 13.1205Z" fill="white"/>
<path d="M13.5195 3.54614V15.1596C13.4309 19.9025 12.5 22.6508 8.99823 22.6508H8.90957C5.4078 22.6508 4.47695 19.9025 4.3883 15.1596V3.54614H0V16.4894C0 21.0993 1.6844 23.8476 5.58511 24.7341C5.58511 24.7341 6.69326 25 8.64362 25H9.21986C11.1702 25 12.1011 24.7341 12.1011 24.7341C16.1791 23.9362 17.8635 21.0993 17.8635 16.4894V3.54614H13.5195Z" fill="white"/>
</svg>
